<?xml version="1.0"?><svg width="100%" height="100%" viewBox="0 0 1644 3194" version="1.1" xmlns="http://www.w3.org/2000/svg" xmlns:xlink="http://www.w3.org/1999/xlink" xml:space="preserve" xmlns:serif="http://www.serif.com/" style="fill-rule:evenodd;clip-rule:evenodd;stroke-linejoin:round;stroke-miterlimit:2;"><g><path d="M1643.75,0l0,2400l-821.863,793.75l-821.887,-793.75l0,-2400l1643.75,0Z"></path><path d="M1643.75,0l0,2400l-821.863,793.75l-821.887,-793.75l0,-2400l1643.75,0Zm-46,46.875l-1551.749,0l0,2317.808l775.885,766.567l775.864,-766.567l0,-2317.808Z" style="fill:#F2E2B8;"></path><path d="M1507.125,128.125l0,2198.765l-685.24,685.61l-685.259,-685.61l-0,-2198.765l1370.499,0Zm-59.375,62.5l-1251.749,0l-0,2101.89l625.883,632.485l625.866,-632.485l0,-2101.89Z" style="fill:#F2E2B8;"></path><path d="M275,884.375l0,384.375l513.458,-513.458l14.667,72.833l262.5,-562.5l-537.5,262.5l78.125,25l-331.25,331.25Z" style="fill:#F2E2B8;"></path><path d="M275,1509.375l0,384.375l1090.625,-1090.625l0,-384.375l-1090.625,1090.625Z" style="fill:#F2E2B8;"></path><path d="M1365.625,1409.375l0,-384.375l-513.458,513.458l-14.667,-72.833l-262.5,562.5l537.5,-262.5l-78.125,-25l331.25,-331.25Z" style="fill:#F2E2B8;"></path><g><path d="M412.5,2171.875l137.5,0l0,334.375l-96.875,0l0,-271.875l-40.625,-62.5Z" style="fill:#F2E2B8;"></path><path d="M593.75,2171.875l228.125,0l40.625,28.125l0,40.625l-178.125,0l0,31.25l-90.625,0l0,-100Z" style="fill:#F2E2B8;"></path><path d="M593.75,2340.625l46.875,-34.375l128.125,0l0,-34.375l93.75,0l0,68.75l-40.625,31.25l-137.5,0l0,71.875l84.375,0l0,-34.375l93.75,0l0,96.875l-268.75,0l0,-165.625Z" style="fill:#F2E2B8;"></path><path d="M912.5,2171.875l228.125,0l40.625,28.125l0,40.625l-178.125,0l0,31.25l-90.625,0l0,-100Z" style="fill:#F2E2B8;"></path><path d="M912.5,2340.625l46.875,-34.375l128.125,0l0,-34.375l93.75,0l0,68.75l-40.625,31.25l-137.5,0l0,71.875l84.375,0l0,-34.375l93.75,0l0,96.875l-268.75,0l0,-165.625Z" style="fill:#F2E2B8;"></path></g></g></svg>